<svg xmlns="http://www.w3.org/2000/svg" width="64" height="64" viewBox="0 0 64 64">
  <rect x="0" y="0" width="64" height="64" rx="12" fill="#3498db"/>
  <g fill="#ffffff">
    <path d="M18 22c6 0 10 2 14 4 4-2 8-4 14-4 2 0 4 .4 4 2v18c0 1.6-1.4 2-3 2-6 0-10 2-15 5-5-3-9-5-15-5-1.6 0-3-.4-3-2V24c0-1.6 2-2 4-2z"/>
    <path d="M18 26c5 0 9 1.8 14 4.4V44c-5-2.8-9-4-14-4-1 0-2-.2-2-1V27c0-.8 1-.9 2-.9z" opacity="0.9"/>
    <path d="M46 26c-5 0-9 1.8-14 4.4V44c5-2.8 9-4 14-4 1 0 2-.2 2-1V27c0-.8-1-.9-2-.9z" opacity="0.9"/>
  </g>
</svg>
